<?xml version="1.0" encoding="UTF-8" standalone="no"?>
<svg width="79px" height="72px" viewBox="0 0 79 72" version="1.1" xmlns="http://www.w3.org/2000/svg" xmlns:xlink="http://www.w3.org/1999/xlink">
    <g id="Page-1" stroke="none" stroke-width="1" fill="none" fill-rule="evenodd">
        <g id="Artboard" transform="translate(-60.000000, -65.000000)" fill="#006BA6">
            <g id="KPLogoIcon" transform="translate(60.000000, 64.000000)">
                <g id="Authenticated_AEM_Header">
                    <g id="Authenticated_AEM_Header-load-annotations">
                        <g id="768">
                            <g id="Logo">
                                <g id="icon">
                                    <path d="M49.7105164,23.1005174 C48.824018,22.4293328 47.747224,21.7044534 46.6611474,21.3778102 L44.934564,55.0802272 L53.623177,31.790121 C54.4354138,28.2417916 52.388577,25.302003 49.7105164,23.1005174" id="Fill-7"></path>
                                    <path d="M35.3594528,21.0735398 L40.464941,54.7043638 L45.4358302,21.1003872 C42.5257018,19.9996444 38.7105096,19.8519838 35.3594528,21.0735398" id="Fill-8"></path>
                                    <path d="M31.1265388,23.07367 C28.4299126,25.270681 26.3923586,28.205995 27.199954,31.7543244 L35.888567,55.0444308 L34.1619836,21.3464882 C33.0805484,21.6686568 31.999113,22.3935362 31.1265388,23.07367" id="Fill-9"></path>
                                    <path d="M13.6286377,26.2640342 C19.4256877,36.081228 25.3294888,46.5919792 31.1265388,56.006462 C29.0750606,47.773264 26.9864518,34.0945214 24.0299098,30.25982 C20.6045914,25.6375952 13.6286377,26.2640342 13.6286377,26.2640342" id="Fill-10"></path>
                                    <path d="M3.33875798,31.195004 L27.0885616,57.751542 L12.356907,26.4116948 C8.5370734,26.5459318 5.29276762,28.443147 3.33875798,31.195004" id="Fill-11"></path>
                                    <path d="M53.019801,38.3677302 L49.088575,56.5747318 C54.1801394,48.0775344 59.1695938,39.6966758 64.06158,31.195004 C59.369172,31.5350708 54.5746544,33.2846254 53.019801,38.3677302" id="Fill-12"></path>
                                    <path d="M65.4586272,31.195004 L52.940898,58.172151 L74.945553,34.9849598 C72.4206568,32.4344582 69.148503,31.2531732 65.4586272,31.195004" id="Fill-13"></path>
                                    <path d="M0.280106322,43.2002594 C7.99867646,48.9590236 15.6754744,54.8788718 23.4683062,60.6018394 L2.58221744,32.0943914 C0.646773212,35.311603 0.0712454336,39.0747114 0.280106322,43.2002594" id="Fill-14"></path>
                                    <path d="M77.6375376,38.2916626 C77.1641196,37.3922752 76.6210814,36.5600064 75.8042032,35.844076 L56.8674828,60.8971606 C64.3864748,55.4784634 71.6687576,49.9479022 78.9231924,44.417341 C78.9928128,42.2337536 78.6307872,40.0993866 77.6375376,38.2916626" id="Fill-15"></path>
                                    <path d="M0.331161204,54.7893806 L20.534971,63.7922036 C13.8421399,57.3398822 7.0843299,51.0754924 0.317237146,44.7216114 L0.331161204,54.7893806" id="Fill-16"></path>
                                    <path d="M78.9417578,55.4560906 L78.9417578,46.2698104 L59.8472314,64.1322706 C66.3312016,61.273024 72.3231884,58.4674724 78.9417578,55.4560906" id="Fill-17"></path>
                                    <path d="M0.280106322,63.7206106 C6.35563746,65.0227088 12.988131,66.6782976 18.483493,67.8103622 L0.280106322,56.1988684 L0.280106322,63.7206106" id="Fill-18"></path>
                                    <path d="M78.9417578,64.2620328 L78.9417578,57.1922216 C73.223611,60.7137036 67.2873204,64.3515242 61.9776124,67.9938194 L78.9417578,64.2620328" id="Fill-19"></path>
                                    <polyline id="Fill-20" points="0.280106322 72.5399766 18.0611299 72.5399766 0.280106322 65.1793186 0.280106322 72.5399766"></polyline>
                                    <path d="M78.9417578,72.5399766 L78.9417578,65.8370794 C73.093653,68.2667678 68.0020888,70.275847 62.4788786,72.5399766 L78.9417578,72.5399766" id="Fill-21"></path>
                                    <path d="M72.7873238,22.2637738 C72.9822606,11.9857001 57.2898458,11.9141071 57.5776098,22.1742826 C57.4290864,31.6469348 73.158632,32.1883572 72.7873238,22.2637738" id="Fill-22"></path>
                                    <polyline id="Fill-23" points="72.7873238 22.2100792 72.7873238 22.2637738 72.7873238 22.2816722 72.7873238 22.2100792"></polyline>
                                    <path d="M21.9459424,16.9300934 C22.4611326,6.60279942 5.8682954,7.02788302 6.50416076,16.9569408 C5.94255704,27.1992182 22.9623986,27.3468788 21.9459424,16.9300934" id="Fill-24"></path>
                                    <path d="M40.4695824,18.9257491 C46.6379406,19.0913079 49.088575,14.7107096 49.2556638,10.6299071 C49.5155796,4.25812782 45.3986994,1.60023672 40.4927892,1.60023672 C35.5822376,1.60023672 31.5953154,4.43263582 31.8505898,10.6299071 C31.985189,14.0574233 33.5168356,18.7333428 40.4695824,18.9257491" id="Fill-25"></path>
                                </g>
                            </g>
                        </g>
                    </g>
                </g>
            </g>
        </g>
    </g>
</svg>