<svg height="15.399" viewBox="0 0 186.688 15.399" width="186.688" xmlns="http://www.w3.org/2000/svg"><g fill="#fff"><path d="m9410.789 8718.71a17.482 17.482 0 0 0 -.161 3.153v3.735c.316.022.474 0 .856 0 3.378 0 4.568-1.214 4.568-3.084 0-3.062-2.024-3.851-4.254-3.851-.358 0-.628.021-1.01.046m2.5 7.385a13.217 13.217 0 0 1 -1.78.133 5.056 5.056 0 0 1 -.879-.044v2.657c0 3.242 0 3.4 2.095 3.559.067 0 .181.451-.045.427a24.66 24.66 0 0 0 -2.791-.136 28.8 28.8 0 0 0 -3.309.136c-.182.044-.092-.427-.026-.427 2.027-.2 2.118-.181 2.118-3.559v-6.775c0-2.547-.044-3.334-1.328-3.334a6.517 6.517 0 0 0 -.855.09c-.112.021-.248-.336-.046-.4a25.705 25.705 0 0 1 5.653-.384c3.287 0 5.988 1.013 5.988 3.511a4.591 4.591 0 0 1 -3.153 4.075c1.22 3.242 4.753 7.139 7.273 7.139.066 0 .179.427-.023.427-5.269 0-7.9-3.536-8.892-7.092" transform="translate(-9406.337 -8717.787)"/><path d="m9435.207 8724.892c0 4.955 3.33 7.5 6.551 7.5 3.4 0 5.945-2.389 5.945-6.464 0-4.953-3.377-7.52-6.576-7.52-3.4 0-5.92 2.408-5.92 6.484m-2.027.744a8.419 8.419 0 0 1 8.467-7.9c4.795 0 8.082 3.557 8.082 7.429a8.446 8.446 0 0 1 -8.512 7.925 7.69 7.69 0 0 1 -8.037-7.45" transform="translate(-9411.081 -8717.732)"/><path d="m9464.373 8731.58a18.974 18.974 0 0 1 .133-2.972c0-.115.408-.093.408-.024.157 2.3 1.419 3.807 3.76 3.807 1.531 0 2.993-.836 2.993-2.636 0-3.736-6.775-3.762-6.775-7.855a4.352 4.352 0 0 1 4.437-4.167 5.745 5.745 0 0 1 2.948.721c.182.089.336.945.336 2.455 0 .111-.449.089-.449.022a2.791 2.791 0 0 0 -3.017-2.521 2.482 2.482 0 0 0 -2.7 2.3c0 3.579 6.64 3.511 6.64 7.81a4.526 4.526 0 0 1 -4.614 4.57 6.145 6.145 0 0 1 -4.1-1.506" transform="translate(-9416.587 -8717.732)"/><path d="m9499.58 8732.813c-.83 0-2.273-.114-3.937-.114-2.275 0-4.6.023-6.236.136-.2.023-.09-.428-.021-.428 2.271-.25 2.316-.155 2.316-3.556v-6.751c0-3.424-.045-3.331-2.316-3.6-.068 0-.205-.43.021-.405 1.641.112 3.85.157 6.146.157 1.668 0 3.2-.045 4.523-.157a4.209 4.209 0 0 0 -.156 1.3c0 .229 0 .678.023.854.021.116-.387.069-.4 0-.184-.986-.656-1.28-3.605-1.28h-2.16a23.524 23.524 0 0 0 -.111 3.016v2.883h2.316c2.477 0 2.3-.182 2.434-.766.021-.067.383 0 .426.047a6.179 6.179 0 0 0 -.135 1.394c0 .249 0 .7.023.879.043.113-.383.091-.406.021-.133-.7-.27-.97-2.342-.97h-2.316v3.289c0 2.927.359 3.2 1.395 3.2h1.193c3.443 0 3.646-.293 3.984-1.778 0-.044.43-.044.4.066-.088.564-.291 1.623-.428 2.1-.111.4-.246.473-.631.473" transform="translate(-9420.998 -8717.797)"/><path d="m9529.79 8733a.221.221 0 0 1 -.382-.023l-3.4-9.543-4.208 9.566a.243.243 0 0 1 -.406-.023l-4.345-10.852c-1.081-2.7-1.439-3.467-3.221-3.623-.11 0-.2-.406.023-.385a18.294 18.294 0 0 0 2.41.137 33.717 33.717 0 0 0 3.6-.137c.225-.021.091.385.021.385-1.036.088-1.6.227-1.6.832a12.987 12.987 0 0 0 .81 2.746l3.22 8.018 3.332-7.7-.111-.27c-1.1-2.633-1.35-3.467-3.062-3.623-.066 0-.158-.406.022-.385a18.524 18.524 0 0 0 2.41.137 37.847 37.847 0 0 0 3.806-.137c.18-.043.113.385.044.385-1.4.111-1.847.27-1.847.947a10.141 10.141 0 0 0 .675 2.631l2.728 8.018 3.216-8.131a8.591 8.591 0 0 0 .813-2.609c0-.562-.36-.744-1.463-.855-.069 0-.205-.406.021-.385a15.484 15.484 0 0 0 2.229.137 10.853 10.853 0 0 0 2.117-.137c.18-.043.09.385.021.385-1.418.135-1.867 1.1-2.926 3.623z" transform="translate(-9425.316 -8717.799)"/><path d="m9553.643 8724.892c0 4.955 3.331 7.5 6.55 7.5 3.4 0 5.943-2.389 5.943-6.464 0-4.953-3.376-7.52-6.573-7.52-3.4 0-5.92 2.408-5.92 6.484m-2.027.744a8.418 8.418 0 0 1 8.466-7.9c4.794 0 8.081 3.557 8.081 7.429a8.446 8.446 0 0 1 -8.509 7.925 7.691 7.691 0 0 1 -8.038-7.45" transform="translate(-9432.016 -8717.732)"/><path d="m9584.87 8724.892c0 4.955 3.331 7.5 6.553 7.5 3.4 0 5.942-2.389 5.942-6.464 0-4.953-3.378-7.52-6.574-7.52-3.4 0-5.921 2.408-5.921 6.484m-2.025.744a8.42 8.42 0 0 1 8.464-7.9c4.8 0 8.082 3.557 8.082 7.429a8.446 8.446 0 0 1 -8.51 7.925 7.69 7.69 0 0 1 -8.036-7.45" transform="translate(-9437.535 -8717.732)"/><path d="m9618.555 8718.947a16.117 16.117 0 0 0 -.184 3.13v7.589c0 2.206.34 2.43 3.6 2.43 3.243 0 5.765-2.229 5.765-6.122 0-4.729-2.61-7.139-6.775-7.139a16.788 16.788 0 0 0 -2.408.112m-.588 13.756a35.169 35.169 0 0 0 -3.646.136c-.226.024-.091-.427-.021-.427 2-.2 2.114-.182 2.114-3.559v-6.753c0-3.378-.115-3.378-2.114-3.6-.07 0-.205-.4.021-.383.945.112 2.521.135 3.851.135.562 0 2.655-.09 3.467-.09 5.382 0 8.127 3.106 8.127 7.091 0 4.1-3.376 7.544-8.421 7.544-.787 0-2.838-.092-3.378-.092" transform="translate(-9443.078 -8717.8)"/></g></svg>